<?xml version="1.0" standalone="no"?><!DOCTYPE svg PUBLIC "-//W3C//DTD SVG 1.1//EN" "http://www.w3.org/Graphics/SVG/1.1/DTD/svg11.dtd"><svg t="1515738784631" class="icon" style="" viewBox="0 0 1024 1024" version="1.1" xmlns="http://www.w3.org/2000/svg" p-id="1849" xmlns:xlink="http://www.w3.org/1999/xlink" width="200" height="200"><defs><style type="text/css"></style></defs><path d="M38.967351 83.843459l19.622054-19.511351 788.369298 792.838919-19.622054 19.511351zM705.72973 792.908108c-49.816216 41.513514-105.167568 84.410811-166.054054 127.308108-2.767568 2.767568-5.535135 4.151351-6.918919 4.151352-6.918919 4.151351-13.837838 6.918919-20.756757 6.918918-8.302703 0-13.837838-2.767568-20.756757-6.918918-1.383784-1.383784-2.767568-2.767568-6.918919-5.535136-170.205405-117.621622-303.048649-239.394595-363.935135-333.491891C83.027027 529.989189 41.513514 467.718919 41.513514 376.389189c0-70.572973 24.908108-134.227027 67.805405-182.659459l-19.372973-19.372973C42.897297 226.940541 13.837838 297.513514 13.837838 376.389189c0 99.632432 47.048649 168.821622 83.027027 225.556757 106.551351 163.286486 366.702703 337.643243 377.772973 347.32973 11.07027 8.302703 23.524324 12.454054 37.362162 12.454054 12.454054 0 26.291892-4.151351 37.362162-12.454054 5.535135-4.151351 87.178378-59.502703 175.740541-135.610811L705.72973 792.908108zM722.335135 74.724324c-87.178378 0-157.751351 42.897297-210.335135 112.086487-53.967568-69.189189-123.156757-112.086486-210.335135-112.086487-55.351351 0-106.551351 16.605405-149.448649 44.281081l20.756757 20.756757c38.745946-23.524324 83.027027-37.362162 130.075676-37.362162 74.724324 0 135.610811 33.210811 188.194594 101.016216l22.140541 29.05946 22.14054-29.05946c51.2-67.805405 114.854054-101.016216 188.194595-101.016216C866.248649 102.4 982.486486 225.556757 982.486486 376.389189c0 91.32973-41.513514 153.6-78.875675 208.951352-30.443243 45.664865-76.108108 96.864865-135.610811 152.216216l19.372973 19.372973c53.967568-49.816216 103.783784-103.783784 139.762162-156.367568 37.362162-55.351351 83.027027-125.924324 83.027027-225.556757 0-164.67027-128.691892-300.281081-287.827027-300.281081z" p-id="1850" fill="#8a8a8a"></path></svg>