<?xml version="1.0" standalone="no"?><!DOCTYPE svg PUBLIC "-//W3C//DTD SVG 1.1//EN" "http://www.w3.org/Graphics/SVG/1.1/DTD/svg11.dtd"><svg t="1515465966545" class="icon" style="" viewBox="0 0 1024 1024" version="1.1" xmlns="http://www.w3.org/2000/svg" p-id="6522" xmlns:xlink="http://www.w3.org/1999/xlink" width="200" height="200"><defs><style type="text/css"></style></defs><path d="M108.8 0c-19.2 0-38.4 19.2-38.4 38.4v947.2c0 19.2 19.2 38.4 38.4 38.4h806.4c19.2 0 38.4-19.2 38.4-38.4V224L729.6 0H108.8z" fill="#2C97FF" p-id="6523"></path><path d="M729.6 0v184.32c0 19.2 19.2 39.68 39.68 39.68h184.32L729.6 0z" fill="#99D3FF" p-id="6524"></path><path d="M742.4 761.6c-10.24 0-19.2-3.84-25.6-11.52L512 537.6 307.2 751.36c-10.24 10.24-25.6 14.08-39.68 8.96-14.08-5.12-23.04-19.2-23.04-33.28V369.92c0-19.2 16.64-35.84 35.84-35.84 19.2 0 35.84 16.64 35.84 35.84v267.52L486.4 460.8c6.4-7.68 16.64-11.52 25.6-11.52 10.24 0 19.2 3.84 25.6 11.52l167.68 175.36V369.92c0-19.2 16.64-35.84 35.84-35.84 19.2 0 35.84 16.64 35.84 35.84v357.12c0 14.08-8.96 28.16-23.04 33.28-2.56 1.28-7.68 1.28-11.52 1.28z" fill="#FFFFFF" p-id="6525"></path></svg>