<?xml version="1.0" standalone="no"?><!DOCTYPE svg PUBLIC "-//W3C//DTD SVG 1.1//EN" "http://www.w3.org/Graphics/SVG/1.1/DTD/svg11.dtd"><svg t="1515466096843" class="icon" style="" viewBox="0 0 1024 1024" version="1.1" xmlns="http://www.w3.org/2000/svg" p-id="7911" xmlns:xlink="http://www.w3.org/1999/xlink" width="200" height="200"><defs><style type="text/css"></style></defs><path d="M954.84285 205.116171v750.906986a68.372057 68.372057 0 0 1-67.976843 67.976843h-750.906986A68.372057 68.372057 0 0 1 69.167821 954.4423V68.767271A68.372057 68.372057 0 0 1 137.144664 0h613.372443z m0 0" fill="#5B7DFF" p-id="7912"></path><path d="M954.84285 205.116171H820.074807a67.976843 67.976843 0 0 1-67.976843-67.976843V0z m0 0" fill="#9FB6FF" p-id="7913"></path><path d="M522.083298 576.617522a154.528753 154.528753 0 0 0-75.090699-18.575067c-75.090699 0-136.3489 50.192204-136.3489 112.240833s60.862987 112.240834 136.3489 112.240834S582.946285 731.54149 582.946285 671.864145V343.441142a106.707835 106.707835 0 0 0 105.917406-9.880355c19.365496-11.065998 11.065998-22.922424 0-22.922423A265.979159 265.979159 0 0 1 543.424865 263.212659c-13.437283-8.694712-20.946353-5.928213-20.946353 6.323427z m0 0" fill="#FFFFFF" p-id="7914"></path></svg>