<?xml version="1.0" standalone="no"?><!DOCTYPE svg PUBLIC "-//W3C//DTD SVG 1.1//EN" "http://www.w3.org/Graphics/SVG/1.1/DTD/svg11.dtd"><svg t="1515466342144" class="icon" style="" viewBox="0 0 1024 1024" version="1.1" xmlns="http://www.w3.org/2000/svg" p-id="8592" xmlns:xlink="http://www.w3.org/1999/xlink" width="200" height="200"><defs><style type="text/css"></style></defs><path d="M915.195 108.809H108.81c-24.766 0-44.805 20.039-44.805 44.804V870.41c0 24.766 20.039 44.805 44.805 44.805h806.406c24.765 0 44.805-20.04 44.805-44.805V153.613c-0.02-24.765-20.06-44.804-44.825-44.804z m0 761.601H108.81V153.613h806.406V870.41zM691.211 332.793L467.207 646.406 332.813 467.207l-179.22 313.594h716.798L691.21 332.793z m-313.613 89.61c49.472 0 89.59-40.157 89.59-89.61 0-49.531-40.118-89.61-89.59-89.61-49.493 0-89.61 40.079-89.61 89.61 0.02 49.453 40.137 89.61 89.61 89.61z" fill="#049CFF" p-id="8593"></path></svg>