<?xml version="1.0" standalone="no"?><!DOCTYPE svg PUBLIC "-//W3C//DTD SVG 1.1//EN" "http://www.w3.org/Graphics/SVG/1.1/DTD/svg11.dtd"><svg t="1515381617504" class="icon" style="" viewBox="0 0 1024 1024" version="1.1" xmlns="http://www.w3.org/2000/svg" p-id="2611" xmlns:xlink="http://www.w3.org/1999/xlink" width="200" height="200"><defs><style type="text/css"></style></defs><path d="M125.328 173.392a40 40 0 1 0 0 80 40 40 0 0 0 0-80z m0 293.328a40 40 0 1 0 0 80 40 40 0 0 0 0-80z m0 266.672a40 40 0 1 0 0 80 40 40 0 0 0 0-80z m800.016-560H312a13.328 13.328 0 0 0-13.328 13.328v26.672c0 7.36 5.968 13.328 13.328 13.328h613.328c7.36 0 13.328-5.968 13.328-13.328V186.72a13.28 13.28 0 0 0-13.312-13.328z m0 293.328H312a13.344 13.344 0 0 0-13.328 13.328v26.672c0 7.344 5.968 13.328 13.328 13.328h613.328c7.36 0 13.328-5.984 13.328-13.328v-26.672a13.28 13.28 0 0 0-13.312-13.328z m0 266.672H312a13.328 13.328 0 0 0-13.328 13.328v26.672c0 7.376 5.968 13.328 13.328 13.328h613.328c7.36 0 13.328-5.952 13.328-13.328V746.72a13.28 13.28 0 0 0-13.312-13.328z" p-id="2612" fill="#8a8a8a"></path></svg>