<?xml version="1.0" standalone="no"?><!DOCTYPE svg PUBLIC "-//W3C//DTD SVG 1.1//EN" "http://www.w3.org/Graphics/SVG/1.1/DTD/svg11.dtd"><svg t="1515400552765" class="icon" style="" viewBox="0 0 1024 1024" version="1.1" xmlns="http://www.w3.org/2000/svg" p-id="1572" xmlns:xlink="http://www.w3.org/1999/xlink" width="200" height="200"><defs><style type="text/css"></style></defs><path d="M530.323 489.143c14.152-6.564 27.892-13.194 40.815-19.711 12.922-6.609 23.267-11.486 30.902-14.54 7.657-2.985 13.788-4.58 18.437-4.58 7.657 0 14.267 2.507 19.873 7.747 5.605 5.106 8.386 11.6 8.386 19.233 0 4.375-1.39 8.979-4.124 13.673-2.712 4.717-5.652 7.747-8.707 9.068-28.303 11.12-59.501 19.301-93.479 24.361 6.176 5.605 13.743 13.239 22.743 22.629 9 9.526 13.743 14.54 14.107 15.177 3.327 4.58 7.908 10.3 13.834 17.093 5.927 6.836 10.027 12.124 12.329 15.974 2.301 3.898 3.464 8.478 3.464 13.969 0 7.02-2.622 13.194-7.909 18.437-5.219 5.286-12.08 7.93-20.418 7.93s-17.661-6.518-28.144-19.415c-10.413-12.899-23.884-36.211-40.336-69.778-16.658 30.218-27.893 50.249-33.546 59.913-5.719 9.571-11.212 16.886-16.453 21.854-5.286 4.923-11.28 7.431-18.117 7.431-8.113 0-14.88-2.781-20.304-8.387-5.266-5.605-8.022-11.646-8.022-17.958 0-5.926 1.072-10.414 3.282-13.447 20.19-27.415 41.225-51.343 63.217-71.421-18.437-2.894-34.867-6.109-49.337-9.571-14.495-3.578-29.9-8.661-46.101-15.496-2.665-1.344-5.219-4.375-7.748-9.068-2.461-4.649-3.691-9.024-3.691-12.967 0-7.633 2.781-14.108 8.387-19.233 5.605-5.219 12.009-7.747 19.279-7.747 5.286 0 11.828 1.595 19.758 4.763 7.862 3.213 17.887 7.793 30.059 13.81 12.193 6.038 26.093 12.786 41.659 20.259-2.849-13.834-5.219-29.717-7.087-47.537-1.868-17.888-2.78-30.127-2.78-36.736 0-8.113 2.576-15.018 7.703-20.897 5.219-5.812 11.781-8.707 19.917-8.707 7.978 0 14.425 2.895 19.598 8.707 5.197 5.881 7.747 13.582 7.747 23.243 0 2.622-0.433 7.816-1.186 15.656-0.683 7.816-1.868 17.206-3.26 28.258a4123.176 4123.176 0 0 0-4.739 38.012z" fill="#d81e06" p-id="1573"></path></svg>