<?xml version="1.0" standalone="no"?><!DOCTYPE svg PUBLIC "-//W3C//DTD SVG 1.1//EN" "http://www.w3.org/Graphics/SVG/1.1/DTD/svg11.dtd"><svg t="1516087339937" class="icon" style="" viewBox="0 0 1024 1024" version="1.1" xmlns="http://www.w3.org/2000/svg" p-id="5179" xmlns:xlink="http://www.w3.org/1999/xlink" width="200" height="200"><defs><style type="text/css"></style></defs><path d="M294.033 294.964c-10.619 0-21.179 4.32-28.618 11.819-7.44 7.5-11.819 17.939-11.819 28.618 0 10.559 4.32 21.119 11.819 28.618 7.5 7.38 17.999 11.759 28.618 11.759 10.559 0 21.119-4.38 28.558-11.819 7.5-7.5 11.819-18.059 11.819-28.558 0-10.679-4.32-21.119-11.819-28.618-7.44-7.5-17.999-11.819-28.558-11.819zM600.074 512.751c-8.279 0-16.499 3.42-22.379 9.239s-9.299 14.039-9.299 22.379 3.42 16.499 9.239 22.379 14.159 9.239 22.439 9.239 16.499-3.42 22.379-9.239 9.239-14.039 9.239-22.379-3.42-16.499-9.239-22.379-14.159-9.239-22.379-9.239zM500.241 375.779c10.559 0 21.119-4.38 28.618-11.819 7.44-7.5 11.759-18.059 11.759-28.618 0-10.679-4.32-21.119-11.759-28.618-7.559-7.44-18.119-11.759-28.618-11.759-10.619 0-21.119 4.32-28.618 11.819s-11.819 17.939-11.819 28.618c0 10.559 4.32 21.119 11.819 28.618 7.5 7.38 17.999 11.759 28.618 11.759zM836.34 32h-648.681c-85.915 0-155.511 69.836-155.511 156.051v647.902c0 86.214 69.596 156.051 155.511 156.051h648.741c85.915 0 155.511-69.836 155.511-156.051v-647.902c-0.060-86.214-69.657-156.051-155.571-156.051zM392.308 675.162c-36.298 0-65.575-7.44-101.933-14.579l-101.693 50.997 29.098-87.534c-72.835-50.937-116.393-116.513-116.393-196.368 0-138.532 131.033-247.485 290.982-247.485 143.092 0 268.423 87.054 293.562 204.348-9.239-1.081-18.599-1.74-28.018-1.74-138.233 0-247.365 103.193-247.365 230.266 0 21.239 3.3 41.517 8.939 61.015-8.999 0.601-18.059 1.081-27.178 1.081zM821.461 777.095l21.899 72.655-79.795-43.737c-29.098 7.321-58.375 14.639-87.354 14.639-138.412 0-247.425-94.614-247.425-211.187 0-116.333 109.013-211.187 247.425-211.187 130.793 0 247.185 94.794 247.185 211.187 0 65.696-43.497 123.772-101.933 167.63zM758.585 512.751c-8.279 0-16.499 3.42-22.379 9.239s-9.239 14.039-9.239 22.379 3.42 16.499 9.239 22.379 14.099 9.239 22.379 9.239 16.499-3.42 22.379-9.239 9.239-14.039 9.239-22.379-3.42-16.499-9.239-22.379-14.099-9.239-22.379-9.239z" p-id="5180" fill="#1afa29"></path></svg>