<?xml version="1.0" standalone="no"?><!DOCTYPE svg PUBLIC "-//W3C//DTD SVG 1.1//EN" "http://www.w3.org/Graphics/SVG/1.1/DTD/svg11.dtd"><svg t="1514972258717" class="icon" style="" viewBox="0 0 1024 1024" version="1.1" xmlns="http://www.w3.org/2000/svg" p-id="1837" xmlns:xlink="http://www.w3.org/1999/xlink" width="200" height="200"><defs><style type="text/css"></style></defs><path d="M734.53112889 35.48046222c-87.96387555 0-169.51978667 44.27320889-223.69621334 117.09098667-53.59388445-72.81777778-135.73233778-117.09098667-223.69621333-117.09098667-158.45148445 0-287.19331555 140.97521778-287.19331555 313.99025778 0 103.10997333 46.02083555 175.92775111 83.30353778 234.18197333 107.77031111 169.51978667 379.23498667 379.81752889 390.8858311 388.55566222 11.06830222 8.73813333 23.88423111 12.81592889 36.70016 12.8159289s25.63185778-4.07779555 36.70016-12.8159289c11.65084445-8.73813333 282.53297778-219.61841778 390.88583112-388.55566222 37.28270222-58.25422222 83.30353778-131.072 83.30353778-234.18197333 0-173.01504-128.74183111-313.99025778-287.19331556-313.99025778z" fill="#999999" p-id="1838"></path></svg>