<?xml version="1.0" standalone="no"?><!DOCTYPE svg PUBLIC "-//W3C//DTD SVG 1.1//EN" "http://www.w3.org/Graphics/SVG/1.1/DTD/svg11.dtd"><svg t="1514972279867" class="icon" style="" viewBox="0 0 1024 1024" version="1.1" xmlns="http://www.w3.org/2000/svg" p-id="2512" xmlns:xlink="http://www.w3.org/1999/xlink" width="200" height="200"><defs><style type="text/css"></style></defs><path d="M472.983381 729.254046c9.230222 9.230222 24.195052 9.230222 33.425274 0l289.583374-289.583374c9.230222-9.230222 9.230222-24.195052 0-33.425274-9.214872-9.214872-24.178679-9.214872-33.409924 0L513.324158 655.503345 513.324158 81.656765c0-13.042037-10.585079-23.62814-23.62814-23.62814-13.043061 0-23.62814 10.585079-23.62814 23.62814l0 573.84658L216.809931 406.245398c-9.230222-9.214872-24.195052-9.214872-33.409924 0-9.230222 9.230222-9.230222 24.195052 0 33.425274L472.983381 729.254046zM891.369284 682.864506c-13.043061 0-23.62814 10.585079-23.62814 23.62814 0 2.772136 0 7.876388 0 7.876388l0 139.797953c0 18.49319-14.712073 33.472346-32.873712 33.472346l-690.342828 0c-18.161638 0-32.874735-14.980179-32.874735-33.472346L111.649869 714.36801c0 0 0-5.103228 0-7.876388 0-13.043061-10.585079-23.62814-23.62814-23.62814-13.043061 0-23.62814 10.585079-23.62814 23.62814 0 2.772136 0 7.876388 0 7.876388l0 157.518546c0 34.795481 28.211529 63.008033 63.008033 63.008033l724.587769 0c34.795481 0 63.008033-28.211529 63.008033-63.008033L914.997424 714.36801c0 0 0-5.103228 0-7.876388C914.997424 693.449585 904.412344 682.864506 891.369284 682.864506z" p-id="2513" fill="#8a8a8a"></path></svg>