<?xml version="1.0" standalone="no"?><!DOCTYPE svg PUBLIC "-//W3C//DTD SVG 1.1//EN" "http://www.w3.org/Graphics/SVG/1.1/DTD/svg11.dtd"><svg t="1515035342373" class="icon" style="" viewBox="0 0 6943 1024" version="1.1" xmlns="http://www.w3.org/2000/svg" p-id="2742" xmlns:xlink="http://www.w3.org/1999/xlink" width="1356.0546875" height="200"><defs><style type="text/css"></style></defs><path d="M973.313047 373.638749c-102.170401-19.057397-260.489012-49.663007-260.489012-49.663007s-80.325504-152.174735-135.222185-249.16835C537.837311 2.844387 533.456955 0.227551 515.195986 0.227551c-18.20408 0-26.680355 7.167857-61.324996 74.579841C398.405433 171.857896 317.112837 323.748192 317.112837 323.748192S156.91693 360.725229 53.494998 379.782626C2.921788 388.03135-13.746324 432.176245 11.910052 463.464509c72.645658 85.559178 193.759681 226.868352 193.759681 226.868352s-27.192345 155.360449-39.024998 261.626767c-3.868367 40.902293 38.001018 70.711475 68.777291 70.711475 10.012244 0 20.764029-2.389285 32.084691-7.736734 86.753821-42.210712 218.676515-106.49387 248.428809-121.114022 29.297192 14.620152 159.911469 80.211729 245.641309 122.422441C772.613061 1021.590235 783.421733 1023.97952 793.433977 1023.97952c30.264284 0 69.289281-29.752294 65.705353-70.654587-11.832652-106.266319-30.036732-261.911206-30.036732-261.911206s113.434175-135.165297 185.283405-221.008913C1039.814828 439.344102 1023.374268 381.944361 973.313047 373.638749zM2452.394576 373.638749c-102.170401-19.057397-260.489012-49.663007-260.489012-49.663007s-80.325504-152.174735-135.279072-249.16835c-39.764538-71.963005-44.144895-74.579841-62.348975-74.579841-18.260968 0-26.680355 7.167857-61.324996 74.579841-55.465558 96.993616-136.815042 248.883911-136.815042 248.883911s-160.139019 36.977038-263.560951 56.034435c-50.573211 8.248724-67.241322 52.393619-41.584946 83.681882 72.645658 85.559178 193.759681 226.868352 193.759681 226.868352s-27.192345 155.360449-39.024998 261.626767c-3.868367 40.902293 38.001018 70.711475 68.777291 70.711475 10.012244 0 20.820917-2.389285 32.084691-7.736734 86.753821-42.210712 218.676515-106.49387 248.428809-121.114022 29.240304 14.620152 159.911469 80.211729 245.641309 122.422441C2251.69459 1021.590235 2262.503263 1023.97952 2272.515507 1023.97952c30.264284 0 69.289281-29.752294 65.705353-70.654587-11.832652-106.266319-30.036732-261.911206-30.036732-261.911206s113.434175-135.165297 185.283405-221.008913C2518.896357 439.344102 2502.455797 381.944361 2452.394576 373.638749zM3931.476105 373.638749c-102.170401-19.057397-260.489012-49.663007-260.489012-49.663007s-80.325504-152.174735-135.222185-249.16835c-39.764538-71.963005-44.144895-74.579841-62.348975-74.579841-18.20408 0-26.680355 7.167857-61.324996 74.579841-55.465558 96.993616-136.815042 248.883911-136.815042 248.883911s-160.139019 36.977038-263.560951 56.034435c-50.573211 8.248724-67.241322 52.393619-41.584946 83.681882 72.645658 85.559178 193.759681 226.868352 193.759681 226.868352s-27.192345 155.360449-39.024998 261.626767c-3.868367 40.902293 38.001018 70.711475 68.777291 70.711475 10.012244 0 20.820917-2.389285 32.084691-7.736734 86.753821-42.210712 218.676515-106.49387 248.428809-121.114022 29.297192 14.620152 159.911469 80.211729 245.641309 122.422441C3730.776119 1021.590235 3741.584792 1023.97952 3751.597036 1023.97952c30.264284 0 69.289281-29.752294 65.705353-70.654587-11.832652-106.266319-30.036732-261.911206-30.036732-261.911206s113.434175-135.165297 185.283405-221.008913C3997.977886 439.344102 3981.537326 381.944361 3931.476105 373.638749zM5410.557635 373.638749c-102.170401-19.057397-260.489012-49.663007-260.489012-49.663007s-80.325504-152.174735-135.279072-249.16835c-39.764538-71.963005-44.144895-74.579841-62.348975-74.579841-18.260968 0-26.680355 7.167857-61.324996 74.579841-55.465558 96.993616-136.758154 248.883911-136.758154 248.883911s-160.139019 36.977038-263.560951 56.034435c-50.573211 8.248724-67.241322 52.393619-41.584946 83.681882 72.645658 85.559178 193.759681 226.868352 193.759681 226.868352s-27.192345 155.360449-39.024998 261.626767c-3.81148 40.902293 38.001018 70.711475 68.777291 70.711475 10.012244 0 20.764029-2.389285 32.084691-7.736734 86.753821-42.210712 218.676515-106.49387 248.428809-121.114022 29.240304 14.620152 159.911469 80.211729 245.641309 122.422441C5209.857649 1021.590235 5220.666322 1023.97952 5230.678565 1023.97952c30.264284 0 69.289281-29.752294 65.705353-70.654587-11.832652-106.266319-30.036732-261.911206-30.036732-261.911206s113.434175-135.165297 185.283405-221.008913C5477.059416 439.344102 5460.618856 381.944361 5410.557635 373.638749zM6889.639164 373.638749c-102.170401-19.057397-260.489012-49.663007-260.489012-49.663007s-80.325504-152.174735-135.279072-249.16835c-39.764538-71.963005-44.144895-74.579841-62.348975-74.579841-18.20408 0-26.680355 7.167857-61.324996 74.579841-55.465558 96.993616-136.815042 248.883911-136.815042 248.883911s-160.139019 36.977038-263.560951 56.034435c-50.573211 8.248724-67.241322 52.393619-41.584946 83.681882 72.645658 85.559178 193.759681 226.868352 193.759681 226.868352s-27.192345 155.360449-39.024998 261.626767c-3.868367 40.902293 37.94413 70.711475 68.777291 70.711475 10.012244 0 20.820917-2.389285 32.084691-7.736734 86.753821-42.210712 218.676515-106.49387 248.428809-121.114022 29.240304 14.620152 159.911469 80.211729 245.584421 122.422441 11.036223 5.347449 21.844896 7.736734 31.857141 7.736734 30.264284 0 69.289281-29.752294 65.705353-70.654587-11.832652-106.266319-30.036732-261.911206-30.036732-261.911206s113.434175-135.165297 185.283405-221.008913C6956.140945 439.344102 6939.700385 381.944361 6889.639164 373.638749z" fill="#f4ea2a" p-id="2743"></path></svg>