<?xml version="1.0" standalone="no"?><!DOCTYPE svg PUBLIC "-//W3C//DTD SVG 1.1//EN" "http://www.w3.org/Graphics/SVG/1.1/DTD/svg11.dtd"><svg t="1515059376318" class="icon" style="" viewBox="0 0 1024 1024" version="1.1" xmlns="http://www.w3.org/2000/svg" p-id="4546" xmlns:xlink="http://www.w3.org/1999/xlink" width="200" height="200"><defs><style type="text/css"></style></defs><path d="M512 512m-512 0a512 512 0 1 0 1024 0 512 512 0 1 0-1024 0Z" fill="#83DBFF" p-id="4547"></path><path d="M343.13933 550.828924h180.599647a31.604938 31.604938 0 0 1 10.534979 60.199883l-72.239858 25.28395a8.728983 8.728983 0 0 0 0 16.253968l86.68783 42.741917a52.975897 52.975897 0 0 0 39.430923 3.009994l182.405644-57.189888a48.761905 48.761905 0 0 1 31.905938 91.80482l-246.217519 93.911817a60.199882 60.199882 0 0 1-44.547913 0l-213.709583-90.299824z" fill="#FFD05A" p-id="4548"></path><path d="M192.007525 737.29806l59.477484-234.899941 98.035508 24.832451-59.477483 234.869842z" fill="#314A5D" p-id="4549"></path><path d="M251.635509 709.455614m-20.76896 0a20.768959 20.768959 0 1 0 41.537919 0 20.768959 20.768959 0 1 0-41.537919 0Z" fill="#FFFFFF" p-id="4550"></path><path d="M358.791299 218.525573h487.920047v272.705468H358.791299z" fill="#2B9983" p-id="4551"></path><path d="M792.832451 467.452087H412.369195v-6.019988a23.778954 23.778954 0 0 0-23.778954-23.778954h-6.019988V270.899471h6.019988a23.778954 23.778954 0 0 0 23.778954-23.778954v-6.019988h380.463256v6.019988a23.778954 23.778954 0 0 0 23.778954 23.778954h6.019988v165.248677h-6.019988a23.778954 23.778954 0 0 0-23.778954 23.778954v6.019988z m-369.025279-12.039976H782.598471a35.81893 35.81893 0 0 1 30.099942-30.099942v-141.469723a35.81893 35.81893 0 0 1-30.099942-30.099942H423.807172a35.81893 35.81893 0 0 1-30.099941 30.099942v142.372722a35.81893 35.81893 0 0 1 30.099941 29.497942z" fill="#E5E8ED" p-id="4552"></path><path d="M528.554968 355.179306a87.891828 74.045855 90 1 0 148.09171 0 87.891828 74.045855 90 1 0-148.09171 0Z" fill="#E5E8ED" p-id="4553"></path><path d="M599.28983 421.399177v-11.437978a68.627866 68.627866 0 0 1-39.129924-18.661963l11.437978-13.845973a55.082892 55.082892 0 0 0 27.390946 13.845973v-30.099941a64.413874 64.413874 0 0 1-26.186949-11.136979 25.283951 25.283951 0 0 1-8.427983-20.768959 30.099941 30.099941 0 0 1 9.631981-22.273957 38.828924 38.828924 0 0 1 24.982951-9.330981v-8.126985h10.23398v8.126985a66.219871 66.219871 0 0 1 32.808936 11.738977l-10.23398 14.447971a50.868901 50.868901 0 0 0-22.574956-9.029982v30.099941a64.112875 64.112875 0 0 1 26.788948 11.437978 26.186949 26.186949 0 0 1 8.427983 21.069959 30.099941 30.099941 0 0 1-9.93298 22.574956 40.634921 40.634921 0 0 1-25.88595 9.631981V421.399177z m-11.136979-102.038801a11.437978 11.437978 0 0 0-3.912992 8.728983 11.136978 11.136978 0 0 0 3.009994 8.427984 32.206937 32.206937 0 0 0 12.039977 6.019988v-27.390947a18.962963 18.962963 0 0 0-11.136979 4.213992z m33.410935 69.229865a12.340976 12.340976 0 0 0 0-18.059965 34.313933 34.313933 0 0 0-12.942975-6.019988V391.299236a21.972957 21.972957 0 0 0 12.641976-3.310994z" fill="#2B9983" p-id="4554"></path><path d="M461.432099 355.179306m-18.059965 0a18.059965 18.059965 0 1 0 36.119929 0 18.059965 18.059965 0 1 0-36.119929 0Z" fill="#E5E8ED" p-id="4555"></path><path d="M743.769547 355.179306m-18.059964 0a18.059965 18.059965 0 1 0 36.119929 0 18.059965 18.059965 0 1 0-36.119929 0Z" fill="#E5E8ED" p-id="4556"></path></svg>