<?xml version="1.0" standalone="no"?><!DOCTYPE svg PUBLIC "-//W3C//DTD SVG 1.1//EN" "http://www.w3.org/Graphics/SVG/1.1/DTD/svg11.dtd"><svg t="1515059671327" class="icon" style="" viewBox="0 0 1085 1024" version="1.1" xmlns="http://www.w3.org/2000/svg" p-id="5581" xmlns:xlink="http://www.w3.org/1999/xlink" width="211.9140625" height="200"><defs><style type="text/css"></style></defs><path d="M521.738329 129.254179c-204.504899 0-370.351585 165.846686-370.351585 370.351585s165.846686 370.351585 370.351585 370.351585 370.351585-165.846686 370.351585-370.351585S726.243228 129.254179 521.738329 129.254179z m14.755043 176.765418c20.952161-41.904323 108.302017-62.266282 109.777521 22.427665 0 0 94.432277-42.789625 92.366571 69.643804 0 0 6.197118 66.397695-113.908934 77.021326l-97.678386 16.820749c-0.295101-0.295101-11.508934-144.009222 9.443228-185.913544z m-278.870317 112.433429s4.131412-33.641499 66.987896-37.772911h8.262824s-23.017867-54.59366 20.952162-73.480115c0 0 66.987896-42.494524 106.826513-6.197118 39.838617 36.297406 58.725072 148.140634 57.249567 194.176369 0 0-201.848991 21.542363-216.604034 11.804034-14.164841-9.738329-49.281844-28.624784-43.674928-88.530259z m283.591931 301.888184s-16.820749 51.642651-79.087032 53.118156-71.70951-74.070317-71.70951-74.070317-131.910086 21.542363-63.446686-130.729683c0 0 55.183862-61.38098 191.520461-61.38098 0 0 5.016715 66.987896 17.410951 90.005764-0.295101 0 26.263977 67.873199 5.311816 123.05706z m234.014985-136.926801c-10.623631 55.183862-74.070317 36.887608-74.070317 36.887608 21.542363 46.921037-5.016715 62.856484-5.016715 62.856484-57.249568 51.05245-85.874352 9.148127-106.236311-4.131412-20.36196-13.279539-58.13487-171.748703-58.13487-171.748703 31.575793-12.689337 162.010375-15.345245 162.010375-15.345245 108.006916 19.476657 81.447839 91.481268 81.447838 91.481268z" fill="#C9D787" p-id="5582"></path></svg>