<?xml version="1.0" standalone="no"?><!DOCTYPE svg PUBLIC "-//W3C//DTD SVG 1.1//EN" "http://www.w3.org/Graphics/SVG/1.1/DTD/svg11.dtd"><svg t="1515059391374" class="icon" style="" viewBox="0 0 1024 1024" version="1.1" xmlns="http://www.w3.org/2000/svg" p-id="5254" xmlns:xlink="http://www.w3.org/1999/xlink" width="200" height="200"><defs><style type="text/css"></style></defs><path d="M510.374603 37.925926c-53.457496 2.528395-130.031746 53.096296-102.941799 115.583774 0.722399 1.444797 2.889594 0.722399 2.889595-0.722398v-0.3612c0.361199 1.083598 0.722399 2.167196 1.444797 3.250794 10.11358 18.782363 33.230335 24.200353 52.373897 27.089947 29.979541 4.695591 60.681481 4.695591 91.022223 0 19.865961-3.250794 48.761905-5.05679 56.708289-27.451146v-0.3612c0.722399-0.722399 1.083598-1.444797 1.444797-2.167195 16.253968-65.377072-39.731922-117.75097-102.941799-114.861376z m-87.04903 115.944973c0-0.361199 0-0.361199 0 0 8.307584 5.417989 16.615168 10.47478 25.283951 14.447972-9.029982-3.611993-18.782363-8.307584-25.283951-14.447972z" fill="#663D1C" p-id="5255"></path><path d="M614.4 663.884303c-22.394356-32.507937-35.397531-63.932275-34.675132-104.025396 0.361199-8.668783-7.223986-12.280776-13.725573-11.197179-0.722399-1.083598-1.805996-1.805996-2.889595-2.528395-33.591534-21.310758-77.296649-15.892769-113.055379-3.250793-2.889594 1.083598-4.695591 3.611993-5.779189 6.140388-4.334392 0.722399-7.946384 4.334392-6.501587 10.11358 10.835979 46.955908-5.779189 78.380247-27.451146 117.75097-11.558377 21.310758-15.53157 44.066314-8.668783 67.544268 15.892769 53.818695 71.51746 78.741446 124.613756 75.851852 51.2903-2.889594 102.2194-28.534744 109.804586-83.798236 3.250794-27.451146-6.501587-50.206702-21.671958-72.601059z" fill="#F2E2D5" p-id="5256"></path><path d="M709.034215 338.804938c2.889594-25.283951 3.611993-50.206702 0.722399-73.323457-15.53157-121.001764-176.987654-107.998589-265.481482-107.27619-53.096296 0.361199-85.243034 26.367549-99.329806 77.296649-9.752381 34.675132-13.725573 71.51746-13.364374 107.998589-8.307584-1.444797-17.337566 1.444797-23.477954 7.946385-9.391182 10.11358-9.752381 25.64515-8.307584 38.287125 1.444797 13.003175 6.501587 26.367549 18.059965 33.591534 6.501587 3.611993 13.725573 5.05679 20.58836 3.250794 0.361199 1.805996 0.722399 3.973192 1.083598 5.779189 0.361199 1.083598 0.722399 2.167196 1.444797 2.889594 6.501587 34.313933 19.504762 67.183069 40.81552 96.079012 55.624691 75.851852 158.56649 96.801411 232.251147 34.675133 39.009524-33.230335 62.126279-80.186243 75.490652-128.948149 1.083598-3.973192 2.167196-7.946384 3.250794-12.280776 1.083598 0.361199 2.528395 0.722399 3.973192 0.722399 37.925926-1.805996 44.788713-77.296649 12.280776-86.687831z" fill="#F0CFB9" p-id="5257"></path><path d="M759.963316 359.032099c-41.537919 0-41.17672-49.484303-44.066314-89.577425 0.361199-7.946384 0-15.892769-2.528395-23.477954-0.722399-4.695591-1.805996-9.029982-3.250794-12.641976-1.805996-5.05679-4.334392-10.11358-6.862787-14.809171-20.22716-59.597884-81.99224-84.159436-139.422927-97.16261-57.069489-13.003175-133.28254-23.116755-173.736861 30.340741v0.361199c-33.952734-3.611993-53.457496 25.283951-65.738272 53.818695-18.421164 43.343915-27.089947 95.717813-15.531569 141.951323v0.361199c0 0.361199 0.361199 0.722399 0.722398 1.083598 1.083598 0.722399 3.250794 0.361199 3.611993-1.083598 7.585185-2.889594 15.53157-2.889594 20.227161 5.417989 3.973192 7.223986 1.083598 15.53157 3.973192 23.116755 0.361199 0.722399 1.083598 0.722399 1.444797 0.722399 0.361199 0.361199 1.083598 0.361199 1.805997 0 46.23351-23.839153 78.380247-70.072663 91.383421-119.918166 0.361199-1.083598 1.083598-1.805996 1.444797-2.889594 0.722399-1.444797 0.722399-2.528395 0.3612-3.973193 0.361199-2.167196 1.083598-4.334392 1.444797-6.862786 8.668783 13.725573 20.22716 26.006349 30.340741 37.564726 22.033157 24.922751 47.678307 46.955908 75.851852 64.654674 56.708289 35.036332 122.80776 48.039506 187.823633 32.507937 12.641975-0.361199 23.116755-6.140388 33.230335-14.086773 1.805996-1.805996 0-5.417989-2.528395-5.417989z" fill="#663D1C" p-id="5258"></path><path d="M490.508642 699.281834c-2.528395-3.611993-5.779189-3.973192-9.752381-5.05679-4.334392-1.083598-9.029982-2.528395-13.725573-3.250794-5.417989-0.722399-7.223986 5.779189-2.167196 7.946385 3.973192 1.805996 8.307584 2.889594 12.280776 3.973192 3.611993 1.083598 7.585185 2.889594 11.197178 1.444797 1.805996-0.722399 3.611993-3.250794 2.167196-5.05679z" fill="#D8362C" p-id="5259"></path><path d="M623.068783 682.305467c-0.361199-0.722399-1.083598-1.083598-1.444797-1.444797v-0.361199c1.083598-8.307584-9.752381-11.558377-12.641975-3.611993-0.361199 0.361199-0.722399 1.083598-1.083598 1.444797-11.558377 2.528395-22.394356 5.417989-33.230335 8.307584-10.11358 1.083598-19.143563 1.444797-21.671958 1.805996-15.53157 1.444797-31.424339 1.805996-47.317108 1.083598-29.618342-1.444797-58.514286-11.558377-87.771428-13.364374-1.805996-2.889594-6.501587-4.334392-8.307584-0.361199-37.203527 74.045855-47.317108 200.826808-0.361199 276.31746 0.361199 0 0.361199 0 0.722398 0.3612 0.722399 0 1.444797 0.361199 2.167196 0.722398 1.805996 0.361199 3.250794 0.722399 4.695591 1.083598 1.083598 0 1.805996 0.361199 2.528395 0.722399 2.889594 0.361199 5.417989 1.083598 7.946384 1.805996 2.528395 0.361199 4.695591 0.722399 6.862787 1.444797 2.167196 0 3.973192 0.361199 6.140388 0.722399 2.167196 0.361199 3.973192 0.722399 5.779189 1.083598 1.083598 0 2.528395 0.361199 3.611993 0.722398 1.444797 0 2.889594 0.361199 4.334391 0.722399 1.083598 0 1.805996 0.361199 2.528395 0.361199 2.167196 0 3.973192 0.361199 6.140388 0.722399h0.722399c1.805996 0 3.611993 0.361199 5.417989 0.722399 1.444797 0 3.250794 0.361199 4.695591 0.722398h0.361199c2.167196 0.361199 4.334392 0.361199 6.140388 0.722399h1.444798c2.167196 0 4.695591 0.361199 6.862786 0.722398 0.722399 0 1.083598 0 1.805997 0.3612H491.231041c0.722399 0 1.805996 0 2.528395 0.361199h2.889594l2.167196 0.361199c1.083598 0 1.805996 0 2.528395 0.361199 1.805996 0 3.250794 0.361199 4.695591 0.3612 0.722399 0 1.083598-0.361199 1.805996-0.3612h1.805997c1.083598 0 1.805996 0 2.528395 0.3612 2.167196-0.361199 4.334392 0 6.501587 0 2.528395-0.361199 4.695591-0.361199 7.223986-0.3612h1.444797c1.444797 0 2.889594-0.361199 4.334392-0.361199h6.140388c2.167196-0.361199 3.973192-0.722399 6.501587-0.722398 1.444797 0 2.528395 0 3.973192 0.361199 1.083598 0 2.528395-0.361199 3.973192-0.361199 1.444797-0.361199 3.250794-0.361199 5.05679-0.3612h1.805997c1.083598-0.361199 2.528395-0.361199 3.611993-0.722398 2.167196-0.361199 4.334392-0.722399 6.862786-0.722399h0.722399c2.167196-0.722399 4.695591-1.083598 6.862787-1.083598 1.083598-0.361199 2.528395-0.361199 3.973192-0.361199 1.083598-0.361199 1.805996-0.361199 2.889594-0.722399 1.805996-0.361199 3.611993-0.722399 5.779189-1.083598h0.722399c1.805996-0.722399 3.973192-0.722399 6.140388-1.083597 1.444797-0.361199 2.889594-0.722399 4.334391-0.722399 1.805996-0.361199 3.250794-0.722399 5.05679-0.722399 2.167196-0.361199 4.334392-0.722399 6.862787-0.722398 1.805996-0.722399 3.611993-1.444797 5.417989-1.805997 0.722399 0 1.444797-0.361199 1.805997-0.361199 2.167196-0.722399 3.973192-1.083598 6.501587-1.444797 2.528395-0.722399 5.05679-1.083598 7.946384-1.083598h0.3612c2.528395-0.722399 5.417989-1.444797 7.946384-2.528395 0.361199 0 0.722399-0.361199 1.083598-0.361199 1.444797-0.361199 2.889594-0.722399 4.695591-1.083598 46.23351-74.045855 29.257143-196.131217-25.64515-266.56508z m-202.271605 179.51605c-0.361199-0.722399-0.722399-1.444797-1.444797-2.167196 0.722399-6.501587 1.444797-13.003175 2.528395-19.504762l-1.083598 21.671958z m241.281129-37.203528c0.361199 2.889594 0.361199 5.779189 0.361199 8.668783-0.722399-3.250794-3.250794-5.05679-5.779189-5.417989 2.167196-0.361199 3.973192-1.444797 5.41799-3.250794z m-1.083598 48.039507c-1.444797 12.280776-4.334392 23.839153-8.668783 35.036331-0.722399-0.722399-1.805996-1.083598-2.528395-1.444797 7.223986-16.253968 11.558377-33.591534 12.641975-51.651499-0.361199 5.779189-0.722399 11.919577-1.444797 18.059965z" fill="#F6F5F5" p-id="5260"></path><path d="M619.817989 658.466314c-4.334392-10.11358-7.946384-20.58836-12.280776-30.70194 0 0 0-0.361199-0.361199-0.361199 2.528395-4.695591-4.695591-8.668783-8.307584-3.973193-18.421164 24.561552-45.511111 38.287125-71.51746 53.096297l-1.083598 1.083598c-0.361199-1.444797-1.444797-2.528395-3.250794-2.889595-2.889594-0.722399-5.779189-1.805996-8.668783-2.889594-0.361199-0.722399-1.444797-1.444797-2.528395-1.805997-1.805996-0.361199-3.250794-0.722399-5.05679-1.083598-26.728748-10.835979-49.123104-26.728748-72.962257-44.788712-1.083598-0.722399-2.167196-0.361199-2.889595 0.722399h-0.361199c-0.722399-0.361199-1.805996 0.361199-1.805996 1.083597-2.889594-2.167196-7.223986-2.167196-8.307584 2.528395-1.805996 11.197178-11.197178 28.534744-10.11358 39.731923 0.722399 9.029982 9.391182 18.782363 14.086772 25.64515 13.725573 20.22716 30.70194 40.093122 52.012698 52.735097 0.361199 3.973192 6.501587 5.779189 7.585186 1.083598 0-0.361199 0.361199-1.083598 0.361199-1.444797 1.805996-0.361199 2.528395-2.889594 1.083598-4.334392l2.167196-9.752381c3.973192-7.946384 10.835979-18.059965 11.919576-19.504762 6.862787-9.029982 14.809171-16.615168 24.200353-22.755555 0.722399-0.361199 1.083598-1.083598 1.444797-1.444798 16.976367 16.615168 26.006349 35.036332 31.06314 58.153087 0.722399 2.528395 3.250794 3.611993 5.417989 2.889594 0.722399 0.361199 1.444797 0 2.167196-0.361199 31.424339-17.337566 49.845503-50.929101 54.541093-85.965432 1.805996-1.444797 2.528395-2.889594 1.444797-4.695591z" fill="#ECECEB" p-id="5261"></path><path d="M799.334039 723.843386c-1.083598-1.805996-3.250794-2.167196-5.05679-1.083598-0.361199-0.722399-1.083598-1.083598-1.805997-1.444797-53.096296-21.671958-109.804586-45.149912-166.151675-57.069488-1.083598-0.361199-2.167196 0.361199-2.889595 1.083598-1.805996-0.361199-3.250794 0.361199-3.973192 2.528395-19.143563 78.380247-50.929101 148.814109-84.520635 221.053968-48.761905-70.433862-96.440212-136.533333-124.974956-217.803175-0.361199-1.444797-1.805996-1.805996-2.889594-1.444797-0.361199-1.444797-1.444797-2.167196-3.250794-1.805996-53.818695 20.949559-109.804586 44.066314-160.733686 70.795061-1.083598 0.361199-1.444797 1.083598-1.444797 2.167196-0.722399 0-1.083598 0.361199-1.083598 1.083598-16.976367 39.731922-24.200353 84.520635-30.340741 127.86455 43.705115 35.75873 144.479718 66.821869 190.352029 79.825044 14.086772 3.973192 28.173545 7.223986 42.260317 9.752381 0.361199 0 1.083598 0.361199 1.444797 0.3612 45.149912 8.307584 90.299824 9.752381 137.255732 2.889594 65.377072-9.752381 124.613757-25.283951 177.710053-59.959083 22.394356-14.809171 59.236684-41.899118 81.99224-63.571076-9.391182-40.81552-22.755556-79.463845-41.899118-115.222575z" fill="#575857" p-id="5262"></path><path d="M450.054321 960.790123c1.444797 0 2.889594 0.361199 4.334392 0.722399 1.083598 0 1.805996 0.361199 2.889594 0.361199 1.083598 0 2.167196 0 3.250794 0.3612-13.003175-23.477954-26.367549-46.594709-42.260318-67.905468 0-0.361199 0.361199-0.361199 0.361199-0.722398 8.307584-23.116755 15.53157-47.678307 20.58836-71.87866 0.361199-1.083598 0-1.805996-0.361199-2.167196-0.361199-1.444797-1.083598-2.528395-2.528395-2.889594-23.477954-6.501587-46.23351-12.641975-68.989065-22.394356 7.946384-20.22716 14.809171-41.17672 22.033157-62.126279 6.501587-18.421164 16.253968-37.925926 16.615167-57.791887 0-0.361199-0.361199-0.361199-0.722399 0-11.919577 15.892769-16.253968 37.203527-23.116754 55.985891-7.585185 21.671958-15.892769 43.343915-22.755556 65.738271-0.722399 2.889594 2.167196 4.695591 4.334392 3.611993 21.310758 11.197178 44.427513 20.58836 68.266666 24.200353-7.946384 22.394356-14.447972 45.87231-19.504762 68.989065-0.361199 1.444797 0.361199 2.167196 1.083598 2.889594 0 0.361199 0 0.722399 0.3612 0.722399 10.47478 22.033157 22.394356 43.343915 34.675132 64.654674 0.722399-0.361199 1.083598-0.361199 1.444797-0.3612zM531.324162 966.930511h6.140388c0.361199 0 1.083598 0 1.444797-0.361199-1.083598-26.006349-2.889594-52.012698-5.417989-77.657848-0.361199-2.889594-4.695591-2.889594-4.695591 0 0 26.006349 0.722399 52.012698 1.083598 77.657848 1.083598 0.361199 1.444797 0.361199 1.444797 0.361199zM670.385891 749.127337c-11.919577-27.451146-25.64515-53.818695-40.454321-79.825044-2.167196-3.973192-8.307584-0.361199-6.140388 3.611993 11.197178 19.865961 22.033157 40.093122 31.785538 60.681481 2.889594 6.501587 30.340741 78.019048 28.173545 77.657849-0.722399 0-1.083598 0-1.083598 0.361199-9.029982 0-18.782363 2.528395-27.451147 4.334391-6.862787 1.083598-14.447972 1.805996-21.310758 3.973193-1.805996 0-3.611993 0.361199-5.41799 0.722398-2.889594 0.722399-4.695591 1.083598-5.779188 3.973192-0.361199 0.722399 0 1.083598 0 1.805997-1.444797 0.722399-2.889594 2.167196-2.167196 4.334391 9.752381 24.200353 16.615168 48.400705 23.477954 73.323457-10.11358 17.337566-19.865961 35.036332-29.618342 52.735097 1.444797-0.361199 2.528395-0.722399 3.973192-0.722398 0.361199 0 1.083598 0 1.805997-0.3612 1.444797-0.361199 3.250794-0.722399 5.05679-1.083598h0.361199c7.946384-15.892769 16.253968-31.424339 24.200353-47.317107 0.722399-1.444797 0.361199-2.889594-0.361199-3.611993-2.889594-26.367549-11.558377-52.012698-22.033157-75.851852l-0.3612-0.361199 0.3612-0.3612s0.361199-0.361199 0.722398-0.361199c9.029982 1.805996 18.421164-1.444797 27.089947-2.889594 10.47478-1.805996 21.671958-2.889594 31.06314-7.223986 0.722399 0.361199 1.444797 0.361199 2.167195 0 1.083598-0.722399 2.167196-1.083598 3.250794-1.805997 1.083598-0.361199 1.805996-1.805996 1.444797-2.889594-1.805996-21.310758-14.086772-42.982716-22.755555-62.848677z" fill="#3C3C3C" p-id="5263"></path></svg>