<?xml version="1.0" standalone="no"?><!DOCTYPE svg PUBLIC "-//W3C//DTD SVG 1.1//EN" "http://www.w3.org/Graphics/SVG/1.1/DTD/svg11.dtd"><svg t="1515049477953" class="icon" style="" viewBox="0 0 1024 1024" version="1.1" xmlns="http://www.w3.org/2000/svg" p-id="1851" xmlns:xlink="http://www.w3.org/1999/xlink" width="200" height="200"><defs><style type="text/css"></style></defs><path d="M396.009777 625.044636l154.933675-43.987841L440.281073 471.073892l-44.271296 153.970744zM809.817408 323.767941L699.150936 213.781968 455.678762 455.748858 566.341141 565.727669 809.817408 323.767941z m-32.251542 407.299403c0 38.217417-30.993898 69.223594-69.223594 69.223595H292.994566c-38.236859 0-69.223594-31.006178-69.223595-69.223595V315.723731c0-38.236859 30.986735-69.223594 69.223595-69.223594h276.896424l69.223594-69.226664H269.923104c-63.73151 0-115.374704 51.647287-115.374704 115.374704v461.490629c0 63.73151 51.65138 115.378797 115.374704 115.378797h461.494723c63.712067 0 115.370611-51.65138 115.37061-115.378797V384.947326l-69.223594 69.223594 0.001023 276.896424z m83.683935-499.689626l-69.16936-68.741617c-11.461029-11.388375-30.658254-10.769274-42.883692 1.372253l-33.20731 32.993439 110.662379 109.985973 33.20731-33.000601c12.225439-12.146645 12.844539-31.216979 1.390673-42.609447z" fill="#0097E0" p-id="1852"></path></svg>