<?xml version="1.0" standalone="no"?><!DOCTYPE svg PUBLIC "-//W3C//DTD SVG 1.1//EN" "http://www.w3.org/Graphics/SVG/1.1/DTD/svg11.dtd"><svg t="1516244282779" class="icon" style="" viewBox="0 0 1024 1024" version="1.1" xmlns="http://www.w3.org/2000/svg" p-id="4090" xmlns:xlink="http://www.w3.org/1999/xlink" width="200" height="200"><defs><style type="text/css"></style></defs><path d="M793.644053 184.826496 669.519058 184.826496l-75.383898-75.724659L427.748642 109.101837l-75.383898 75.724659L228.238726 184.826496c-10.099009 1.023306-19.962657 14.254655-18.939351 26.786063l0 47.915289 602.727351 0L812.026726 211.612559C812.025703 201.251583 808.075741 185.849802 793.644053 184.826496zM443.366342 146.964166l135.176702 0 37.691437 37.862329L405.673881 184.826496 443.366342 146.964166z" p-id="4091" fill="#707070"></path><path d="M247.160681 852.40383c0 10.361999 6.708795 10.874675 18.769482 10.874675l490.021429 0c11.1919 0 19.235087-0.512676 19.235087-10.874675L775.186679 297.390177l-528.025998 0L247.160681 852.40383zM549.03601 410.977165l36.839023 0 0 300.852022-36.839023 0L549.03601 410.977165zM435.449022 410.977165l37.862329 0 0 300.852022-37.862329 0L435.449022 410.977165z" p-id="4092" fill="#707070"></path></svg>